{"asset":{"version":"2.0","generator":"THREE.GLTFExporter r178"},"scenes":[{"nodes":[0]}],"scene":0,"nodes":[{"mesh":0}],"bufferViews":[{"buffer":0,"byteOffset":0,"byteLength":198720,"target":34962,"byteStride":12},{"buffer":0,"byteOffset":198720,"byteLength":33120,"target":34963}],"buffers":[{"byteLength":231840,"uri":"data:application/octet-stream;base64,"}],"accessors":[{"bufferView":0,"componentType":5126,"count":16560,"max":[33.13261413574219,19.244388580322266,143.2257537841797],"min":[-41.26739501953125,-6.155611515045166,-18.77423095703125],"type":"VEC3"},{"bufferView":1,"componentType":5123,"count":16560,"max":[16559],"min":[0],"type":"SCALAR"}],"materials":[{"pbrMetallicRoughness":{"metallicFactor":0,"roughnessFactor":1}}],"meshes":[{"primitives":[{"mode":4,"attributes":{"POSITION":0},"indices":1,"material":0}]}]}